<svg width="1440" height="16" viewBox="0 0 1440 16" fill="none" xmlns="http://www.w3.org/2000/svg">
<path d="M16.2946 16C20.7129 16 24.2946 12.4183 24.2946 8C24.2946 3.58172 20.7129 0 16.2946 0V16ZM68.8839 0C64.4656 0 60.8839 3.58172 60.8839 8C60.8839 12.4183 64.4656 16 68.8839 16V0ZM121.473 16C125.891 16 129.473 12.4183 129.473 8C129.473 3.58172 125.891 0 121.473 0V16ZM174.062 0C169.644 0 166.062 3.58172 166.062 8C166.062 12.4183 169.644 16 174.062 16V0ZM226.652 16C231.07 16 234.652 12.4183 234.652 8C234.652 3.58172 231.07 0 226.652 0V16ZM279.241 0C274.823 0 271.241 3.58172 271.241 8C271.241 12.4183 274.823 16 279.241 16V0ZM331.83 16C336.249 16 339.83 12.4183 339.83 8C339.83 3.58172 336.249 0 331.83 0V16ZM384.42 0C380.001 0 376.42 3.58172 376.42 8C376.42 12.4183 380.001 16 384.42 16V0ZM437.009 16C441.427 16 445.009 12.4183 445.009 8C445.009 3.58172 441.427 0 437.009 0V16ZM489.598 0C485.18 0 481.598 3.58172 481.598 8C481.598 12.4183 485.18 16 489.598 16V0ZM542.188 16C546.606 16 550.188 12.4183 550.188 8C550.188 3.58172 546.606 0 542.188 0V16ZM594.777 0C590.359 0 586.777 3.58172 586.777 8C586.777 12.4183 590.359 16 594.777 16V0ZM647.366 16C651.784 16 655.366 12.4183 655.366 8C655.366 3.58172 651.784 0 647.366 0V16ZM699.955 0C695.537 0 691.955 3.58172 691.955 8C691.955 12.4183 695.537 16 699.955 16V0ZM752.545 16C756.963 16 760.545 12.4183 760.545 8C760.545 3.58172 756.963 0 752.545 0V16ZM805.134 0C800.716 0 797.134 3.58172 797.134 8C797.134 12.4183 800.716 16 805.134 16V0ZM857.723 16C862.142 16 865.723 12.4183 865.723 8C865.723 3.58172 862.142 0 857.723 0V16ZM910.313 0C905.894 0 902.313 3.58172 902.313 8C902.313 12.4183 905.894 16 910.313 16V0ZM962.902 16C967.32 16 970.902 12.4183 970.902 8C970.902 3.58172 967.32 0 962.902 0V16ZM1015.49 0C1011.07 0 1007.49 3.58172 1007.49 8C1007.49 12.4183 1011.07 16 1015.49 16V0ZM1068.08 16C1072.5 16 1076.08 12.4183 1076.08 8C1076.08 3.58172 1072.5 0 1068.08 0V16ZM1120.67 0C1116.25 0 1112.67 3.58172 1112.67 8C1112.67 12.4183 1116.25 16 1120.67 16V0ZM1173.26 16C1177.68 16 1181.26 12.4183 1181.26 8C1181.26 3.58172 1177.68 0 1173.26 0V16ZM1225.85 0C1221.43 0 1217.85 3.58172 1217.85 8C1217.85 12.4183 1221.43 16 1225.85 16V0ZM1278.44 16C1282.86 16 1286.44 12.4183 1286.44 8C1286.44 3.58172 1282.86 0 1278.44 0V16ZM1331.03 0C1326.61 0 1323.03 3.58172 1323.03 8C1323.03 12.4183 1326.61 16 1331.03 16V0ZM1383.62 16C1388.03 16 1391.62 12.4183 1391.62 8C1391.62 3.58172 1388.03 0 1383.62 0V16ZM1436.21 0C1431.79 0 1428.21 3.58172 1428.21 8C1428.21 12.4183 1431.79 16 1436.21 16V0ZM-10 16H16.2946V0H-10V16ZM68.8839 16H121.473V0H68.8839V16ZM174.062 16H226.652V0H174.062V16ZM279.241 16H331.83V0H279.241V16ZM384.42 16H437.009V0H384.42V16ZM489.598 16H542.188V0H489.598V16ZM594.777 16H647.366V0H594.777V16ZM699.955 16H752.545V0H699.955V16ZM805.134 16H857.723V0H805.134V16ZM910.313 16H962.902V0H910.313V16ZM1015.49 16H1068.08V0H1015.49V16ZM1120.67 16H1173.26V0H1120.67V16ZM1225.85 16H1278.44V0H1225.85V16ZM1331.03 16H1383.62V0H1331.03V16ZM1436.21 16H1462.5V0H1436.21V16Z" fill="#C4C4C4"/>
</svg>
