<svg width="85" height="4" viewBox="0 0 85 4" fill="none" xmlns="http://www.w3.org/2000/svg">
<path d="M4.25 4C5.35457 4 6.25 3.10457 6.25 2C6.25 0.895431 5.35457 0 4.25 0V4ZM12.75 0C11.6454 0 10.75 0.895431 10.75 2C10.75 3.10457 11.6454 4 12.75 4V0ZM21.25 4C22.3546 4 23.25 3.10457 23.25 2C23.25 0.895431 22.3546 0 21.25 0V4ZM29.75 0C28.6454 0 27.75 0.895431 27.75 2C27.75 3.10457 28.6454 4 29.75 4V0ZM38.25 4C39.3546 4 40.25 3.10457 40.25 2C40.25 0.895431 39.3546 0 38.25 0V4ZM46.75 0C45.6454 0 44.75 0.895431 44.75 2C44.75 3.10457 45.6454 4 46.75 4V0ZM55.25 4C56.3546 4 57.25 3.10457 57.25 2C57.25 0.895431 56.3546 0 55.25 0V4ZM63.75 0C62.6454 0 61.75 0.895431 61.75 2C61.75 3.10457 62.6454 4 63.75 4V0ZM72.25 4C73.3546 4 74.25 3.10457 74.25 2C74.25 0.895431 73.3546 0 72.25 0V4ZM80.75 0C79.6454 0 78.75 0.895431 78.75 2C78.75 3.10457 79.6454 4 80.75 4V0ZM0 4H4.25V0H0V4ZM12.75 4H21.25V0H12.75V4ZM29.75 4H38.25V0H29.75V4ZM46.75 4H55.25V0H46.75V4ZM63.75 4H72.25V0H63.75V4ZM80.75 4H85V0H80.75V4Z" fill="#C4C4C4"/>
</svg>
