<svg width="37" height="36" viewBox="0 0 37 36" fill="none" xmlns="http://www.w3.org/2000/svg">
<path d="M23.7911 18.2296C23.7911 19.6429 23.214 20.9983 22.1869 21.9977C21.1597 22.997 19.7666 23.5585 18.3139 23.5585C16.8613 23.5585 15.4682 22.997 14.441 21.9977C13.4139 20.9983 12.8368 19.6429 12.8368 18.2296C12.8368 17.9259 12.8697 17.6293 12.9263 17.3415H11.0111V24.4413C11.0111 24.9351 11.4219 25.3348 11.9295 25.3348H24.7003C24.9435 25.3343 25.1766 25.2399 25.3484 25.0724C25.5203 24.9049 25.6168 24.6779 25.6168 24.4413V17.3415H23.7016C23.7582 17.6293 23.7911 17.9259 23.7911 18.2296ZM18.3139 21.7822C18.7936 21.7821 19.2685 21.6901 19.7116 21.5114C20.1546 21.3327 20.5572 21.0708 20.8963 20.7408C21.2353 20.4107 21.5043 20.0189 21.6877 19.5878C21.8711 19.1566 21.9655 18.6945 21.9654 18.2279C21.9652 17.7612 21.8706 17.2992 21.687 16.8681C21.5033 16.437 21.2342 16.0453 20.895 15.7155C20.5557 15.3856 20.153 15.1239 19.7099 14.9455C19.2667 14.767 18.7918 14.6752 18.3121 14.6753C17.3435 14.6755 16.4146 15.0501 15.7298 15.7167C15.045 16.3833 14.6605 17.2872 14.6607 18.2296C14.661 19.1721 15.046 20.0758 15.7311 20.742C16.4162 21.4083 17.3453 21.7824 18.3139 21.7822ZM22.6956 14.4995H24.8847C25.0301 14.4995 25.1696 14.4434 25.2726 14.3435C25.3756 14.2436 25.4337 14.1081 25.4342 13.9666V11.8368C25.4342 11.695 25.3763 11.559 25.2732 11.4588C25.1702 11.3585 25.0304 11.3022 24.8847 11.3022H22.6956C22.5499 11.3022 22.4101 11.3585 22.3071 11.4588C22.204 11.559 22.1461 11.695 22.1461 11.8368V13.9666C22.1479 14.2597 22.3944 14.4995 22.6956 14.4995ZM18.3139 1.17737C13.6656 1.17737 9.20755 2.97394 5.92064 6.17186C2.63374 9.36978 0.78717 13.7071 0.78717 18.2296C0.78717 22.7522 2.63374 27.0895 5.92064 30.2874C9.20755 33.4853 13.6656 35.2819 18.3139 35.2819C20.6156 35.2819 22.8947 34.8408 25.0212 33.9839C27.1476 33.1269 29.0797 31.8709 30.7073 30.2874C32.3348 28.704 33.6258 26.8241 34.5066 24.7553C35.3874 22.6864 35.8407 20.469 35.8407 18.2296C35.8407 15.9903 35.3874 13.7729 34.5066 11.704C33.6258 9.63514 32.3348 7.75531 30.7073 6.17186C29.0797 4.58841 27.1476 3.33235 25.0212 2.47539C22.8947 1.61844 20.6156 1.17737 18.3139 1.17737ZM27.4425 25.1376C27.4425 26.2229 26.5296 27.111 25.4141 27.111H11.2138C10.0983 27.111 9.18542 26.2229 9.18542 25.1376V11.3217C9.18542 10.2364 10.0983 9.34825 11.2138 9.34825H25.4141C26.5296 9.34825 27.4425 10.2364 27.4425 11.3217V25.1376Z" fill="white"/>
</svg>
