<svg width="37" height="36" viewBox="0 0 37 36" fill="none" xmlns="http://www.w3.org/2000/svg">
<path d="M18.428 0.0582886C8.34474 0.0582886 0.170898 8.03413 0.170898 17.8731C0.170898 27.7121 8.34474 35.6879 18.428 35.6879C28.5112 35.6879 36.685 27.7121 36.685 17.8731C36.685 8.03413 28.5112 0.0582886 18.428 0.0582886ZM13.9588 25.257H10.2617V13.6477H13.9588V25.257ZM12.0874 12.2225C10.9197 12.2225 10.1647 11.4152 10.1647 10.4169C10.1647 9.39808 10.9426 8.61497 12.135 8.61497C13.3274 8.61497 14.0577 9.39808 14.0805 10.4169C14.0805 11.4152 13.3274 12.2225 12.0874 12.2225ZM27.4614 25.257H23.7643V18.8232C23.7643 17.3257 23.228 16.3087 21.8911 16.3087C20.8698 16.3087 20.2632 16.9972 19.995 17.6597C19.8961 17.8954 19.8714 18.2294 19.8714 18.5616V25.2551H16.1724V17.3498C16.1724 15.9005 16.1249 14.6887 16.0755 13.6458H19.2876L19.4568 15.2584H19.531C20.0178 14.5013 21.2103 13.3841 23.2052 13.3841C25.6376 13.3841 27.4614 14.9745 27.4614 18.3927V25.257Z" fill="white"/>
</svg>
